<?xml version="1.0" encoding="UTF-8" standalone="no"?>
<!-- Created with Inkscape (http://www.inkscape.org/) -->

<svg
   version="1.1"
   id="svg310"
   width="225"
   height="225"
   viewBox="0 0 225 225"
   sodipodi:docname="conunmate.svg"
   xml:space="preserve"
   inkscape:version="1.2.1 (9c6d41e410, 2022-07-14)"
   xmlns:inkscape="http://www.inkscape.org/namespaces/inkscape"
   xmlns:sodipodi="http://sodipodi.sourceforge.net/DTD/sodipodi-0.dtd"
   xmlns="http://www.w3.org/2000/svg"
   xmlns:svg="http://www.w3.org/2000/svg"><defs
     id="defs314"><rect
       x="35.019194"
       y="118.99309"
       width="267.87749"
       height="59.384425"
       id="rect648" /><rect
       x="0"
       y="79.262242"
       width="416.74127"
       height="85.342947"
       id="rect592" /><rect
       x="33.250995"
       y="83.160778"
       width="251.35598"
       height="110.38664"
       id="rect484" /></defs><sodipodi:namedview
     id="namedview312"
     pagecolor="#ffffff"
     bordercolor="#666666"
     borderopacity="1.0"
     inkscape:showpageshadow="2"
     inkscape:pageopacity="0.0"
     inkscape:pagecheckerboard="0"
     inkscape:deskcolor="#d1d1d1"
     showgrid="false"
     inkscape:zoom="3.482108"
     inkscape:cx="99.939462"
     inkscape:cy="91.611174"
     inkscape:window-width="2560"
     inkscape:window-height="1361"
     inkscape:window-x="0"
     inkscape:window-y="42"
     inkscape:window-maximized="1"
     inkscape:current-layer="g316" /><g
     inkscape:groupmode="layer"
     inkscape:label="Image"
     id="g316"><text
       xml:space="preserve"
       id="text482"
       style="font-size:13.3333px;line-height:1.25;font-family:Raleway;-inkscape-font-specification:Raleway;white-space:pre;shape-inside:url(#rect484);display:inline" /><g
       id="g553"
       transform="translate(0.74827065,1.9534752)"><g
         id="g656"
         transform="translate(34.445705,0.07383501)"><g
           aria-label="Con un"
           transform="matrix(2.2731605,0,0,2.2731605,48.003069,-101.59267)"
           id="text590"
           style="font-weight:bold;font-stretch:expanded;font-size:13.3333px;line-height:1.25;font-family:'Helvetica Neue LT Std';-inkscape-font-specification:'Helvetica Neue LT Std Bold Expanded';white-space:pre;shape-inside:url(#rect592);display:inline;stroke-width:0.439916"><path
             d="M 11.733304,84.528372 C 11.346638,81.24838 8.4266454,80.661715 6.1333178,80.661715 c -3.4666579,0 -5.62665241,1.49333 -5.62665241,5.026654 0,3.533325 2.15999451,5.026654 5.62665241,5.026654 3.0266591,0 5.3066532,-1.146664 5.6266522,-3.91999 H 8.9466441 c -0.2533327,1.506663 -1.466663,2.106661 -2.7199932,2.106661 -2.4533271,0 -2.9733258,-1.919995 -2.9733258,-3.213325 0,-1.29333 0.5199987,-3.213325 2.9733258,-3.213325 1.3466633,0 2.4799938,0.679998 2.7199932,2.053328 z"
             id="path755" /><path
             d="m 12.559962,86.875033 c 0,2.693326 1.893329,3.83999 4.719989,3.83999 2.826659,0 4.719988,-1.146664 4.719988,-3.83999 0,-2.693327 -1.893329,-3.83999 -4.719988,-3.83999 -2.82666,0 -4.719989,1.146663 -4.719989,3.83999 z m 2.426661,0 c 0,-1.399997 0.839998,-2.186661 2.293328,-2.186661 1.453329,0 2.293327,0.786664 2.293327,2.186661 0,1.399996 -0.839998,2.186661 -2.293327,2.186661 -1.45333,0 -2.293328,-0.786665 -2.293328,-2.186661 z"
             id="path752" /><path
             d="m 29.199919,90.448357 h 2.34666 v -4.759988 c 0,-2.106661 -1.853328,-2.573327 -3.066659,-2.573327 -1.373329,0 -2.493327,0.626665 -2.919992,1.226664 h -0.02667 V 83.301709 H 23.2666 v 7.146648 h 2.346661 v -3.453324 c 0,-1.519997 0.919998,-2.066662 2.013328,-2.066662 1.053331,0 1.57333,0.479999 1.57333,1.466663 z"
             id="path749" /><path
             d="m 44.093189,90.448357 h 2.266661 v -7.146648 h -2.346661 v 3.573324 c 0,1.319997 -0.719998,2.026661 -1.986661,2.026661 -1.079998,0 -1.599996,-0.479998 -1.599996,-1.466663 v -4.133322 h -2.346661 v 4.839987 c 0,2.106662 1.853329,2.573327 3.066659,2.573327 1.37333,0 2.493327,-0.626665 2.919992,-1.226663 h 0.02667 z"
             id="path746" /><path
             d="m 53.893156,90.448357 h 2.346661 v -4.759988 c 0,-2.106661 -1.853329,-2.573327 -3.066659,-2.573327 -1.37333,0 -2.493327,0.626665 -2.919993,1.226664 h -0.02667 v -1.039997 h -2.266661 v 7.146648 h 2.34666 v -3.453324 c 0,-1.519997 0.919998,-2.066662 2.013329,-2.066662 1.05333,0 1.573329,0.479999 1.573329,1.466663 z"
             id="path743" /></g><g
           aria-label="Mate"
           transform="matrix(3.1304734,0,0,3.1304734,-62.053495,-269.17511)"
           id="text646"
           style="font-weight:bold;font-stretch:expanded;font-size:13.3333px;line-height:1.25;font-family:'Helvetica Neue LT Std';-inkscape-font-specification:'Helvetica Neue LT Std Bold Expanded';white-space:pre;shape-inside:url(#rect648);display:inline;stroke-width:0.31944"><path
             d="m 42.552846,127.51217 -2.82666,-6.85332 h -3.79999 v 9.51998 h 2.50666 v -7.62665 h 0.02667 l 3.013325,7.62665 h 2.159995 l 3.013326,-7.62665 h 0.02667 v 7.62665 h 2.50666 v -9.51998 h -3.79999 z"
             id="path740" /><path
             d="m 56.952798,127.2855 c 0,1.2 -1.319997,1.77333 -2.506661,1.77333 -0.879998,0 -1.479996,-0.36 -1.479996,-1 0,-0.64 0.413332,-0.86666 1.239997,-0.93333 l 1.359996,-0.12 c 0.466666,-0.04 0.946665,-0.0933 1.386664,-0.30667 z m -3.773324,-2.06666 c 0.333332,-0.98667 0.853331,-1.06667 1.853328,-1.06667 1.359997,0 1.839996,0.28 1.839996,0.85334 0,0.57333 -0.24,0.69333 -0.959998,0.74666 l -2.493327,0.17333 c -1.426663,0.0933 -2.959992,0.46667 -2.959992,2.2 0,1.66666 1.306663,2.31999 3.173325,2.31999 1.053331,0 2.54666,-0.22666 3.346658,-1.02666 0.01333,0.25333 0.08,0.50666 0.16,0.76 h 2.346661 c -0.16,-0.36 -0.266666,-0.81334 -0.266666,-1.44 v -3.54666 c 0,-1.33333 -0.719999,-2.42666 -4.07999,-2.42666 -1.919995,0 -3.946657,0.25333 -4.226656,2.45333 z"
             id="path737" /><path
             d="m 61.52611,123.03218 h -1.479996 v 1.57333 h 1.479996 v 3.61332 c 0,1.29333 0.213333,2.12 2.439994,2.12 0.519999,0 1.399996,-0.08 1.839995,-0.13334 v -1.57333 c -0.373332,0.0267 -0.733331,0.0533 -1.146663,0.0533 -0.613332,0 -0.786665,-0.18667 -0.786665,-0.74667 v -3.33332 h 1.893328 v -1.57333 h -1.893328 v -2.21333 H 61.52611 Z"
             id="path734" /><path
             d="m 72.952725,128.0455 c -0.333333,0.61333 -0.999998,0.93333 -1.946662,0.93333 -1.599996,0 -2.293328,-1.04 -2.293328,-1.72 v -0.0267 h 6.879983 v -0.21334 c 0,-2.69332 -1.493329,-4.25332 -4.586655,-4.25332 -2.826659,0 -4.719988,1.14667 -4.719988,3.83999 0,2.69333 1.893329,3.83999 4.719988,3.83999 2.146661,0 3.773324,-0.70666 4.453322,-2.39999 z m -4.23999,-2.2 v -0.0267 c 0,-0.17334 0.386666,-1.58667 2.239995,-1.58667 1.719995,0 2.213328,1.2 2.213328,1.58667 v 0.0267 z"
             id="path731" /></g></g><path
         style="fill:#000000;stroke-width:0.999997"
         d="m 31.534958,140.94755 c -8.605816,-2.47815 -15.834472,-9.08101 -17.768783,-16.23051 -1.119688,-4.13852 -0.487822,-11.3954 1.415783,-16.26018 0.762136,-1.94767 3.7279,-7.154 6.590598,-11.569649 5.882597,-9.073777 7.697608,-10.291489 16.396959,-11.000923 4.021379,-0.327949 5.106768,-0.174833 5.086302,0.717532 -0.04932,2.152005 -2.19387,3.997346 -4.645432,3.997346 -2.96147,0 -7.59811,1.526264 -7.59811,2.501101 0,1.178238 5.908494,2.548114 9.767677,2.26462 3.458411,-0.25406 3.761601,-0.48759 6.312358,-4.861848 3.289107,-5.640437 6.962686,-8.963808 11.600184,-10.494321 3.058938,-1.009547 3.627992,-1.008247 4.282139,0.0097 1.315755,2.047617 0.443692,3.431885 -2.888089,4.584421 -1.779559,0.615588 -4.066236,1.899629 -5.081517,2.85344 l -1.845962,1.734187 2.308753,3.362726 c 9.164963,13.348878 11.126161,18.050828 11.126161,26.674878 0,5.20886 -0.337077,6.70818 -2.233368,9.93393 -4.526549,7.69999 -12.434456,12.12476 -22.554891,12.62028 -3.871445,0.18955 -7.82526,-0.13258 -10.270762,-0.8368 z m 19.165754,-5.93213 c 4.601402,-2.04027 9.374332,-6.82599 10.643699,-10.67221 0.523566,-1.58641 0.742667,-4.65134 0.486888,-6.81094 -0.481792,-4.06802 -3.674911,-12.47758 -4.553222,-11.99164 -6.630582,3.66856 -8.883934,4.22346 -17.269953,4.2528 -7.723635,0.027 -9.041728,-0.19325 -13.061856,-2.18279 -5.033577,-2.4911 -4.850719,-2.59226 -7.381805,4.08396 -1.911065,5.04077 -2.094544,9.77139 -0.524712,13.52852 1.539755,3.68516 8.197943,9.32986 12.716166,10.78056 5.050966,1.62175 14.126092,1.14835 18.944795,-0.98826 z m -1.939563,-30.92031 c 4.974543,-1.47729 6.438784,-2.91415 5.244228,-5.146189 -0.829389,-1.54971 -0.91009,-1.5492 -5.578057,0.0352 -5.59418,1.898779 -13.926631,1.658669 -18.309094,-0.52757 -2.598921,-1.29652 -2.821466,-1.29425 -3.796249,0.0388 -1.326118,1.813569 -1.302528,2.317449 0.16554,3.535829 3.761813,3.12203 15.155394,4.17775 22.273632,2.06386 z"
         id="path504" /></g></g></svg>
